<svg viewBox="0 0 1024 1024" xmlns="http://www.w3.org/2000/svg" fill="#20232d"><path d="M768 64a128 128 0 0 1 128 128v640a128 128 0 0 1-128 128H256a128 128 0 0 1-128-128V192A128 128 0 0 1 256 64h512z m0 64H256a64 64 0 0 0-63.552 56.512L192 192v640a64 64 0 0 0 56.512 63.552L256 896h512a64 64 0 0 0 63.552-56.512L832 832V192a64 64 0 0 0-56.512-63.552L768 128zM384 672v64h-64v-64h64z m320 0v64H448v-64h256zM384 480v64h-64v-64h64z m320 0v64H448v-64h256zM384 288v64h-64v-64h64z m320 0v64H448v-64h256z"/></svg>
